<svg width="221" height="151" viewBox="0 0 221 151" fill="none" xmlns="http://www.w3.org/2000/svg">
<path d="M196 147.754L185.726 146.537L190.367 145.524L184.564 144.51L182.905 145.32L183.401 143.089L179.74 145.255L180.585 142.483L178.597 143.701L178.433 141.877L177.107 143.298L176.943 141.271L175.284 143.502V139.855L174.399 141.584L173.624 143.094V140.258L173.128 137.823L170.927 140.65L169.814 142.076L170.311 138.226C170.311 138.226 168.488 141.063 168.82 140.456C169.153 139.85 168.657 138.837 168.657 138.837L165.84 142.081L166.5 139.041L164.841 140.258L164.508 137.823L162.521 140.456L162.188 136.81L161.359 139.244L160.529 135.19L159.868 140.461L157.712 136.204L158.045 141.271L157.643 140.735L157.807 140.009L157.315 140.297L156.058 138.633L156.197 140.958L154.14 142.175L154.985 139.403L152.998 140.62L152.834 138.797L151.507 140.218L151.343 138.191L149.684 140.422V136.775L148.8 138.504L148.025 140.014V137.178L147.528 134.743L145.327 137.57L144.214 138.996L144.711 135.146C144.711 135.146 142.888 137.982 143.221 137.376C143.553 136.77 143.057 135.757 143.057 135.757L140.24 139.001L140.901 135.96L139.241 137.178L138.908 134.743L136.921 137.376L136.588 133.73L135.759 136.164L134.929 132.11L134.268 137.381L132.112 133.124L132.445 138.191L130.458 135.558L130.672 139.095L127.805 138.593L127.308 138.191V138.509L125.892 138.261L124.755 138.817L124.367 138.479L124.735 136.84L123.394 137.635L123.334 137.585L123.369 137.65L121.073 139.006L121.918 136.234L119.931 137.451L119.767 135.628L118.44 137.048L118.276 135.022L116.617 137.252V133.606L115.733 135.334L114.958 136.845V134.008L114.461 131.574L112.26 134.401L111.147 135.826L111.644 131.976C111.644 131.976 109.821 134.813 110.154 134.207C110.487 133.601 109.99 132.587 109.99 132.587L107.173 135.831L107.834 132.791L106.175 134.008L105.842 131.574L103.855 134.207L103.522 130.56L102.692 132.995L101.862 128.941L101.202 134.212L99.0456 129.954L99.2741 133.447L98.5289 133.899L97.3863 132.384L97.5154 134.515L97.4012 134.584L97.2372 132.761L95.9108 134.182L95.7468 132.155L94.0875 134.386V130.739L93.2032 132.468L92.4282 133.978V131.142L91.9315 128.707L89.7306 131.534L88.6178 132.96L89.1146 129.11C89.1146 129.11 87.2914 131.946 87.6242 131.34C87.9571 130.734 87.4603 129.721 87.4603 129.721L84.6435 132.965L85.3042 129.924L83.6449 131.142L83.312 128.707L81.3249 131.34L80.992 127.694L80.1624 130.128L79.3327 126.074L78.672 131.345L76.5159 127.088L76.8487 132.155L74.8616 129.522L75.1944 134.997L74.1164 134.117L74.2207 133.322C74.2207 133.322 74.0617 133.571 73.8481 133.899L71.7119 132.16V134.907L71.6672 134.957L67.7325 131.549L69.4515 134.833L68.751 135.349L68.4181 132.915L66.4309 135.548L66.0981 131.902L65.2684 134.336L64.4388 130.282L63.8327 135.096L63.5197 135.041L61.622 131.296L61.8455 134.753L60.6234 134.54L60.5886 134.559L59.9627 133.73L60.0272 134.833L58.9641 135.349L59.4609 133.119L55.7995 135.285L56.6441 132.513L54.6569 133.73L54.4929 131.907L53.1665 133.327L53.0026 131.301L51.3433 133.531V129.885L50.459 131.613L49.684 133.124V130.287L49.1872 127.853L46.9814 130.68L45.8686 132.105L46.3654 128.255C46.3654 128.255 44.5421 131.092 44.875 130.486C45.2078 129.88 44.711 128.866 44.711 128.866L41.8942 132.11L42.555 129.07L40.8956 130.287L40.5628 127.853L38.5756 130.486L38.2428 126.839L37.4131 129.274L36.5835 125.22L35.9227 130.491L33.7666 126.233L34.0995 131.301L32.1123 128.667L32.4452 134.137L28.9626 131.301V134.137L24.9833 130.689L27.6362 135.757L14.3767 137.376H24.9833L17.0296 138.593L47.5229 137.987L41.2235 140.014L54.5476 139.051L55.4766 140.824L42.2171 142.444H52.8237L44.87 143.661L75.3633 143.055L69.064 145.082L99.8901 142.851L93.5212 142.096L112.782 141.713L106.483 143.74L125.798 142.344L125.962 142.657L112.702 144.277H123.309L115.355 145.494L145.849 144.888L139.549 146.915L145.461 146.488L138.297 147.362H148.904L140.95 148.579L171.444 147.973L165.144 150L195.97 147.769L196 147.754ZM56.8179 139.19L56.4801 138.897L56.8179 138.872V139.19ZM59.6596 138.668L60.2657 138.623L60.3005 139.19L59.6596 138.668ZM70.2066 136.631L69.8489 136.676L70.0178 135.911L70.3258 136.497L70.2066 136.631ZM83.6499 140.342L84.0721 138.961L86.0544 138.921L83.6499 140.342ZM86.9237 139.915L87.1523 138.901L90.2771 138.837L86.9287 139.915H86.9237ZM99.0306 134.555L99.294 133.695L99.3784 135.012L99.0306 134.55V134.555ZM130.696 139.488L130.771 140.725L130.359 140.675L129.281 139.796L130.696 139.488ZM127.313 140.228V140.312L127.055 140.283L127.313 140.228Z" fill="#FFFAF5" stroke="#B6312C" stroke-miterlimit="10"/>
<path d="M78.0207 82.4062C78.0207 82.4062 81.0313 104.995 82.9092 113.456C84.7871 121.916 86.6252 131.654 85.8651 133.194C85.105 134.734 84.643 135.861 84.6132 136.855C84.5834 137.849 83.9574 139.682 82.0945 140.054C80.2315 140.427 76.6545 141.028 75.9988 139.155C75.343 137.282 77.2606 135.067 77.7127 134.366C78.1598 133.666 79.2428 130.854 79.0541 127.714C78.8653 124.574 78.0158 115.15 75.6808 112.234C73.3509 109.313 71.7015 107.271 70.688 103.252C69.6696 99.2327 66.1274 80.0464 65.8641 79.4701C65.5959 78.8938 78.0207 82.4062 78.0207 82.4062Z" fill="#FFFAF5" stroke="#B6312C" stroke-miterlimit="10"/>
<path d="M135.644 83.2954C135.644 83.2954 129.99 85.9781 114.808 87.5132C99.6263 89.0483 92.3234 89.6792 84.2753 86.7233C76.2273 83.7624 66.1721 81.03 66.1721 81.03C66.1721 81.03 67.2502 92.4861 67.2104 98.4824C67.1707 104.479 65.9237 112.582 65.3822 116.278C64.8407 119.974 66.1224 134.152 66.2168 135.722C66.3112 137.292 65.2977 137.834 64.8258 139.249C64.3538 140.665 63.6186 141.356 61.7556 141.584C59.8926 141.813 55.183 141.669 54.2341 140.069C53.2852 138.47 56.3405 136.562 57.816 135.037C59.2915 133.511 60.1112 125.399 60.1857 122.969C60.2602 120.54 60.3497 112.979 58.6109 109.069C56.8721 105.159 58.442 105.209 55.6649 93.2711C52.8878 81.3331 53.2852 87.0562 50.2448 83.6829C47.2045 80.3047 44.7702 75.9478 42.1073 69.5839C39.4445 63.2199 30.8301 55.3854 30.8301 55.3854C30.8301 55.3854 33.1501 35.608 32.6285 29.3086C32.1068 23.0093 32.2012 19.8695 32.9166 19.8944C33.632 19.9192 37.1394 20.8184 37.1394 20.8184C37.1394 20.8184 39.4197 22.0952 46.8716 21.1811C54.3235 20.267 55.9381 18.8859 62.2474 18.0811C68.5567 17.2763 78.433 16.4317 88.2944 16.1634C98.1558 15.8952 100.292 11.3892 122.658 8.50285C145.023 5.61647 155.481 9.22321 160.986 15.9598C166.49 22.6963 160.678 40.0841 160.722 52.6481C160.767 65.217 159.152 76.0174 161.895 84.3834C164.637 92.7494 164.97 95.8991 164.592 108.17C164.215 120.441 166.952 133.661 165.879 136.199C164.801 138.738 164.284 141.719 164.284 141.719C164.284 141.719 164.97 142.598 160.817 143.04C156.663 143.482 153.241 143.239 152.987 142.23C152.734 141.222 153.911 139.975 155.511 139.165C157.106 138.355 157.9 135.668 158.059 135.245C158.218 134.823 159.629 125.871 158.397 119.547C157.16 113.227 154.602 103.58 152.525 96.8033C150.448 90.027 147.746 80.2352 147.746 80.2352L145.863 81.035C145.863 81.035 146.365 83.3352 145.063 83.8667C143.762 84.3983 143.548 82.1081 143.548 82.1081L141.943 83.201L139.628 84.13C139.628 84.13 140.269 86.5792 139.112 86.9717C137.959 87.3642 137.537 87.0661 137.427 86.0626C137.313 85.059 137.219 83.4842 137.219 83.4842L135.654 83.2954" fill="#FFFAF5"/>
<path d="M40.1799 42.0217C40.1799 42.0217 39.9265 48.3062 41.4368 52.837C42.9471 57.3628 46.216 67.4229 45.9626 69.6833C45.7092 71.9487 41.0046 69.2362 42.1025 69.5839C43.2004 69.9317 39.4248 63.3939 36.1559 60.8801C32.8869 58.3663 31.3767 55.5991 30.3732 53.5871C29.3696 51.5751 40.1799 42.0217 40.1799 42.0217Z" fill="#FFFAF5"/>
<path d="M117.884 74.2089C117.884 74.2089 110.591 67.1693 105.563 69.9365C100.536 72.7036 101.037 79.9966 92.9892 81.7552C84.9412 83.5139 78.5822 84.1547 84.2754 86.7281C89.9687 89.3015 97.1673 91.1297 108.325 87.5379C119.488 83.9461 123.16 81.2535 121.654 76.7227C120.149 72.1919 117.884 74.2089 117.884 74.2089Z" fill="#FFFAF5"/>
<path d="M147.731 80.2399C147.731 80.2399 150.429 90.0318 152.51 96.808C154.587 103.584 157.15 113.227 158.383 119.551C159.62 125.871 158.199 134.823 158.045 135.25C158.045 135.25 158.343 139.592 159.828 138.603C161.314 137.615 165.869 136.204 165.869 136.204C166.947 133.665 164.21 120.446 164.583 108.175C164.96 95.9039 164.627 92.7542 161.885 84.3882C159.143 76.0221 160.757 65.2168 160.712 52.6529C160.693 46.592 162.029 39.4133 162.809 32.8456C162.312 26.1339 162.034 21.7174 162.103 21.1362C162.441 18.4684 155.69 18.687 154.09 23.1631C152.491 27.6392 146.733 34.9968 146.733 34.9968C146.733 34.9968 129.782 77.8503 130.105 84.8849C130.105 84.9346 130.12 84.9843 130.12 85.039C134 84.0801 135.639 83.3051 135.639 83.3051L137.204 83.4939C137.204 83.4939 137.299 85.0688 137.413 86.0723C137.527 87.0758 137.944 87.3739 139.097 86.9814C140.249 86.589 139.614 84.1398 139.614 84.1398L141.929 83.2108L143.533 82.1178C143.533 82.1178 143.747 84.408 145.049 83.8765C146.35 83.3449 145.848 81.0447 145.848 81.0447L147.731 80.2449V80.2399Z" fill="#FFFAF5"/>
<path d="M135.644 83.2954C135.644 83.2954 129.99 85.9781 114.808 87.5132C99.6263 89.0483 92.3234 89.6792 84.2753 86.7233C76.2273 83.7624 66.1721 81.03 66.1721 81.03C66.1721 81.03 67.2502 92.4861 67.2104 98.4824C67.1707 104.479 65.9237 112.582 65.3822 116.278C64.8407 119.974 66.1224 134.152 66.2168 135.722C66.3112 137.292 65.2977 137.834 64.8258 139.249C64.3538 140.665 63.6186 141.356 61.7556 141.584C59.8926 141.813 55.183 141.669 54.2341 140.069C53.2852 138.47 56.3405 136.562 57.816 135.037C59.2915 133.511 60.1112 125.399 60.1857 122.969C60.2602 120.54 60.3497 112.979 58.6109 109.069C56.8721 105.159 58.442 105.209 55.6649 93.2711C52.8878 81.3331 53.2852 87.0562 50.2448 83.6829C47.2045 80.3047 44.7702 75.9478 42.1073 69.5839C39.4445 63.2199 30.8301 55.3854 30.8301 55.3854C30.8301 55.3854 33.1501 35.608 32.6285 29.3086C32.1068 23.0093 32.2012 19.8695 32.9166 19.8944C33.632 19.9192 37.1394 20.8184 37.1394 20.8184C37.1394 20.8184 39.4197 22.0952 46.8716 21.1811C54.3235 20.267 55.9381 18.8859 62.2474 18.0811C68.5567 17.2763 78.433 16.4317 88.2944 16.1634C98.1558 15.8952 100.292 11.3892 122.658 8.50285C145.023 5.61647 155.481 9.22321 160.986 15.9598C166.49 22.6963 160.678 40.0841 160.722 52.6481C160.767 65.217 159.152 76.0174 161.895 84.3834C164.637 92.7494 164.97 95.8991 164.592 108.17C164.215 120.441 166.952 133.661 165.879 136.199C164.801 138.738 164.284 141.719 164.284 141.719C164.284 141.719 164.97 142.598 160.817 143.04C156.663 143.482 153.24 143.239 152.987 142.23C152.734 141.222 153.911 139.975 155.511 139.165C157.106 138.355 157.9 135.668 158.059 135.245C158.218 134.823 159.629 125.871 158.397 119.547C157.16 113.227 154.602 103.58 152.525 96.8033C150.448 90.027 147.746 80.2352 147.746 80.2352L145.863 81.035C145.863 81.035 146.365 83.3352 145.063 83.8667C143.762 84.3983 143.548 82.1081 143.548 82.1081L141.943 83.201L139.628 84.13C139.628 84.13 140.269 86.5792 139.112 86.9717C137.959 87.3642 137.537 87.0661 137.427 86.0626C137.313 85.059 137.219 83.4842 137.219 83.4842L135.654 83.2954" stroke="#B6312C" stroke-miterlimit="10"/>
<path d="M61.7756 53.4033C61.8949 54.6503 62.1085 55.8376 62.4165 56.9405" stroke="#B6312C" stroke-miterlimit="10"/>
<path d="M99.8153 16.8638C99.8153 16.8638 76.9975 22.716 70.107 29.1992C64.9254 34.0728 61.885 42.6723 61.6714 50.1192" stroke="#B6312C" stroke-miterlimit="10"/>
<path d="M140.001 80.8611C140.001 80.8611 140.016 85.0044 141.163 84.8951C142.311 84.7858 142.147 80.7817 142.147 80.7817C142.147 80.7817 142.738 80.0861 144.333 79.2764" fill="#FFFAF5"/>
<path d="M140.001 80.8611C140.001 80.8611 140.016 85.0044 141.163 84.8951C142.311 84.7858 142.147 80.7817 142.147 80.7817C142.147 80.7817 142.738 80.0861 144.333 79.2764" stroke="#B6312C" stroke-miterlimit="10"/>
<path d="M147.731 80.2401C147.731 80.2401 149.584 80.2947 151.77 74.2239C153.956 68.1481 149.45 56.7317 148.303 52.1264C147.16 47.5211 146.673 44.6497 146.673 44.6497" stroke="#B6312C" stroke-miterlimit="10"/>
<path d="M145.535 77.314C145.535 77.314 147.413 76.6583 147.572 71.3773C147.731 66.0964 146.713 62.0674 146.713 62.0674" stroke="#B6312C" stroke-miterlimit="10"/>
<path d="M148.729 14.8669C148.729 14.8669 155.635 17.793 157.409 29.8403C159.182 41.8876 158 61.8439 159.212 68.8785L160.424 75.9131C160.424 75.9131 160.394 81.4822 160.081 87.1854C159.763 92.8886 161.308 98.5024 163.251 100.276L165.193 102.05L164.875 98.4676C164.875 98.4676 165.516 100.917 169.138 103.883C172.759 106.849 173.217 110.575 173.217 110.575C173.217 110.575 173.733 107.733 172.625 101.846C171.522 95.9588 167.424 89.8334 167.424 89.8334C167.424 89.8334 171.234 91.3784 170.812 91.0803C170.395 90.7822 166.758 88.2436 164.816 81.7555C162.873 75.2723 161.646 54.6702 162.222 45.1218C162.799 35.5734 163.877 28.3201 162.098 21.1265C160.32 13.9329 159.182 13.7541 155.829 11.3695C152.475 8.97989 148.744 9.58102 148.744 9.58102" fill="#FFFAF5"/>
<path d="M148.729 14.8669C148.729 14.8669 155.635 17.793 157.409 29.8403C159.182 41.8876 158 61.8439 159.212 68.8785L160.424 75.9131C160.424 75.9131 160.394 81.4822 160.081 87.1854C159.763 92.8886 161.308 98.5024 163.251 100.276L165.193 102.05L164.875 98.4676C164.875 98.4676 165.516 100.917 169.138 103.883C172.759 106.849 173.217 110.575 173.217 110.575C173.217 110.575 173.733 107.733 172.625 101.846C171.522 95.9588 167.424 89.8334 167.424 89.8334C167.424 89.8334 171.234 91.3784 170.812 91.0803C170.395 90.7822 166.758 88.2436 164.816 81.7555C162.873 75.2723 161.646 54.6702 162.222 45.1218C162.799 35.5734 163.877 28.3201 162.098 21.1265C160.32 13.9329 159.182 13.7541 155.829 11.3695C152.475 8.97989 148.744 9.58102 148.744 9.58102" stroke="#B6312C" stroke-miterlimit="10"/>
<path d="M45.9227 38.9961C44.7056 45.0272 42.8227 56.4237 44.6013 61.8338" stroke="#B6312C" stroke-miterlimit="10"/>
<path d="M46.7822 35.0569C46.7822 35.0569 46.6084 35.7822 46.3401 37.0043" stroke="#B6312C" stroke-miterlimit="10"/>
<path d="M63.9316 63.1003C63.9316 63.1003 64.4533 68.2124 67.7272 72.3904" stroke="#B6312C" stroke-miterlimit="10"/>
<path d="M18.5102 27.0185C18.5102 27.0185 13.4181 25.3592 11.5799 23.9235C9.74178 22.4877 3.59145 22.6765 1.65395 24.4998C-0.283551 26.323 2.31469 31.5443 6.41822 32.672C10.5217 33.7998 15.4897 31.3208 15.9915 31.2115C16.4982 31.1022 18.6891 29.1597 18.5003 27.0235L18.5102 27.0185Z" fill="#FFFAF5" stroke="#B6312C" stroke-miterlimit="10"/>
<path d="M16.5577 29.3439C16.5577 29.3439 12.648 25.9656 9.54797 24.7386C6.44796 23.5164 4.82344 23.4668 3.27344 24.9224C3.27344 24.9224 5.91639 25.6129 5.35501 27.5802C4.79363 29.5475 5.63818 30.9535 9.00646 31.7931C12.3797 32.6376 16.1504 30.3325 16.1504 30.3325" fill="#FFFAF5"/>
<path d="M16.5577 29.3439C16.5577 29.3439 12.648 25.9656 9.54797 24.7386C6.44796 23.5164 4.82344 23.4668 3.27344 24.9224C3.27344 24.9224 5.91639 25.6129 5.35501 27.5802C4.79363 29.5475 5.63818 30.9535 9.00646 31.7931C12.3797 32.6376 16.1504 30.3325 16.1504 30.3325" stroke="#B6312C" stroke-miterlimit="10"/>
<path d="M29.6881 18.2053C29.6881 18.2053 27.537 18.8909 24.9139 18.4338C22.2909 17.9768 19.6926 17.018 18.8729 19.1293C18.0582 21.2358 19.474 24.0377 19.474 24.0377C19.474 24.0377 18.1029 27.8829 16.1455 30.3321C14.1881 32.7813 14.2328 35.4143 15.917 37.8486C17.5961 40.2829 18.4655 48.8377 18.6146 52.1017C18.7636 55.3656 15.9517 57.164 16.7367 60.1945C17.5216 63.2299 21.3966 63.5975 22.7926 63.1404C24.1886 62.6834 26.6825 63.0063 28.4263 63.4385C30.17 63.8658 32.6987 63.1951 33.5184 60.9595C34.3381 58.7239 33.6675 56.0711 33.6675 56.0711C33.6675 56.0711 36.6284 53.5275 39.2564 49.722C41.8795 45.9166 40.8412 34.848 40.871 33.8444C40.9008 32.8409 46.3805 34.1375 49.56 32.7316C52.7394 31.3257 55.6358 22.7609 54.5527 21.2209C53.4697 19.6808 48.4422 20.0285 45.521 21.3202C42.5949 22.6119 41.1442 24.9468 39.6539 24.5245C38.1635 24.1023 37.463 22.3237 37.1351 20.8085C36.8072 19.2933 37.1003 17.9221 34.974 17.7334C32.8478 17.5446 29.6931 18.2003 29.6931 18.2003L29.6881 18.2053Z" fill="#FFFAF5" stroke="#B6312C" stroke-miterlimit="10"/>
<path d="M19.9656 29.547C19.9656 29.547 19.1211 34.043 19.4042 37.6944C19.6874 41.3459 19.4042 46.4032 19.4042 46.4032C19.4042 46.4032 17.1935 39.781 16.7762 38.1564C16.3638 36.5319 15.1864 36.1146 15.6435 33.9188C16.0956 31.7229 19.0465 27.0332 19.4291 27.6393C19.8116 28.2454 19.9706 29.547 19.9706 29.547H19.9656Z" fill="#FFFAF5"/>
<path d="M38.5114 31.5094C38.5114 31.5094 33.4838 24.0128 32.6244 29.3086C31.7649 34.6044 32.6094 41.9073 33.7322 43.8746C34.855 45.8419 36.8223 47.5261 38.2282 41.6291C39.6341 35.7272 38.5114 31.5144 38.5114 31.5144V31.5094Z" fill="#FFFAF5"/>
<path d="M45.3368 31.4749C40.9799 30.6006 39.7727 28.9214 40.7265 26.4424C41.6804 23.9634 50.4041 21.5986 50.4041 21.5986C50.4041 21.5986 51.9988 22.8009 50.8761 26.1741C49.7533 29.5474 47.9499 32.0015 45.3368 31.4749Z" fill="#FFFAF5" stroke="#B6312C" stroke-miterlimit="10"/>
<path d="M38.074 37.173C37.7114 38.1467 36.8867 38.7379 36.2408 38.4945C35.595 38.2511 35.3615 37.2674 35.7291 36.2937C36.0918 35.32 36.9165 34.7288 37.5623 34.9722C38.2081 35.2157 38.4416 36.1993 38.074 37.173Z" fill="#FFFAF5" stroke="#B6312C" stroke-miterlimit="10"/>
<path d="M17.5761 36.2189C17.8344 37.2224 17.7748 38.1117 17.437 38.1961C17.1041 38.2806 16.6173 37.5354 16.3589 36.5319C16.1006 35.5283 16.1602 34.6391 16.498 34.5546C16.8358 34.4702 17.3177 35.2154 17.5761 36.2189Z" fill="#FFFAF5" stroke="#B6312C" stroke-miterlimit="10"/>
<path d="M26.3945 52.0917C21.6451 51.5701 18.1527 54.9731 18.1527 54.9731L18.0185 54.988C17.2882 56.707 16.2201 58.1824 16.7418 60.1994C17.5267 63.2349 21.4017 63.6025 22.7977 63.1454C24.1887 62.6884 26.6876 63.0113 28.4314 63.4435C30.1751 63.8708 32.7038 63.2001 33.5235 60.9645C34.3432 58.7289 33.6725 56.076 33.6725 56.076C33.6725 56.076 31.1439 52.6134 26.3945 52.0917Z" fill="#FFFAF5" stroke="#B6312C" stroke-miterlimit="10"/>
<path d="M22.3899 60.12C22.3899 60.12 20.7704 59.8219 20.5816 57.8049C20.3928 55.788 19.2502 56.2599 19.1757 58.6396C19.1011 61.0192 20.8399 61.6998 22.3899 60.1151V60.12Z" fill="#FFFAF5" stroke="#B6312C" stroke-miterlimit="10"/>
<path d="M26.7769 60.1251C26.7769 60.1251 28.4113 59.9264 28.8386 58.3068C29.2658 56.6873 27.7903 55.639 29.2658 56.6873C30.7363 57.7355 31.6852 59.6432 29.2708 60.5772C26.8613 61.5062 26.7769 60.1251 26.7769 60.1251Z" fill="#FFFAF5" stroke="#B6312C" stroke-miterlimit="10"/>
<path d="M32.5349 23.228C33.4043 23.3473 34.1147 23.4367 34.5469 23.4963" stroke="#B6312C" stroke-miterlimit="10"/>
<path d="M21.1433 22.9598C21.1433 22.9598 24.9388 21.8221 27.6811 22.4083C28.4313 22.5673 29.2013 22.7114 29.9416 22.8356" stroke="#B6312C" stroke-miterlimit="10"/>
<path d="M50.2998 103.456C50.2998 103.456 49.8427 109.288 49.1571 113.58C48.4716 117.873 52.5254 126.348 53.1563 128.454C53.7873 130.561 54.0456 138.286 54.2294 140.069C54.4132 141.853 57.9852 143.492 59.8084 142.996C61.6317 142.494 59.9177 139.379 59.406 137.973C58.8943 136.567 57.1158 130.943 57.2052 123.432C57.2947 115.92 57.5381 112.83 58.3628 110.714C59.1874 108.597 59.7737 107.644 59.7737 107.644L50.2998 103.456Z" fill="#FFFAF5" stroke="#B6312C" stroke-miterlimit="10"/>
<path d="M85.1155 113.093C85.1155 113.093 82.2093 127.043 81.2256 132.205C80.2419 137.367 80.5301 147.163 80.1774 147.273C79.8197 147.382 78.523 147.342 77.2413 146.831C75.9596 146.319 75.5522 144.183 75.7261 142.419C75.8999 140.655 77.5443 136.929 77.6884 136.11C77.8325 135.29 76.4663 118.141 76.2775 116.601C76.0887 115.06 75.4528 112.681 78.056 112.527C80.6543 112.373 85.1155 113.098 85.1155 113.098V113.093Z" fill="#FFFAF5" stroke="#B6312C" stroke-miterlimit="10"/>
<path d="M121.451 82.3117C121.451 82.3117 119.578 83.1065 113.86 83.7871C108.142 84.4677 105.345 82.8134 102.17 84.2839C98.9908 85.7544 96.4819 88.6657 96.4819 88.6657C96.4819 88.6657 90.8533 86.4996 85.9648 83.3599C81.0763 80.2202 80.6441 75.7937 74.6826 75.1826C68.721 74.5716 67.8367 75.5453 67.8367 75.5453C67.8367 75.5453 58.2933 70.9798 52.5205 68.9528C46.7428 66.9259 39.2263 70.6817 37.7309 77.612C36.2356 84.5423 38.8139 107.405 39.1816 109.268C39.5542 111.131 39.6933 120.53 39.7777 122.383C39.8622 124.236 40.667 130.526 40.5825 133.372C40.4981 136.219 39.4697 141.882 39.1269 143.721C38.7841 145.559 43.0367 146.259 44.2042 145.3C45.3716 144.342 44.7357 141.897 44.388 139.324C44.0402 136.75 43.8365 129.338 44.7854 126.377C45.7293 123.417 46.082 121.29 46.2162 116.884C46.3503 112.472 47.4234 105.388 47.4234 105.388C47.4234 105.388 51.9939 109.655 58.3678 110.704C64.7417 111.752 69.4513 111.469 69.4513 111.469C69.4513 111.469 74.3646 123.153 76.0587 128.186C77.7577 133.223 78.9351 136.532 78.8209 140.372C78.7016 144.212 79.0395 147.213 80.0082 148.097C80.977 148.982 85.1004 149.25 86.1287 148.142C87.1571 147.034 85.4233 143.278 84.7923 140.556C84.1614 137.833 82.2736 134.5 82.2189 131.648C82.1643 128.797 82.3531 122.681 81.9855 120.679C81.6178 118.672 81.1111 116.665 81.2899 115.532C81.4688 114.4 87.5645 115.155 91.9164 112.581C96.2683 110.008 101.425 108.885 110.959 104.479C120.492 100.072 124.968 93.3753 126.439 91.8501C127.909 90.3299 127.8 84.6317 125.862 82.719C123.93 80.8064 121.461 82.3017 121.461 82.3017L121.451 82.3117Z" fill="#FFFAF5"/>
<path d="M69.3075 111.483C68.2543 109.511 66.7093 106.56 66.0833 105.139C65.0947 102.894 63.5695 99.8581 63.5695 99.8581C63.5695 99.8581 60.8024 102.372 54.0162 102.625C47.225 102.879 44.2094 92.5652 44.2094 92.5652C44.2094 92.5652 43.7076 107.653 42.6992 110.167C42.1527 111.528 40.5729 110.673 39.2415 109.605C39.465 111.25 39.5942 115.646 39.6836 118.9C41.2336 125.393 43.1115 132.354 44.1101 132.751C44.1448 130.287 44.3336 127.813 44.7907 126.382C45.7346 123.421 46.0873 121.295 46.2214 116.888C46.3556 112.477 47.4286 105.392 47.4286 105.392C47.4286 105.392 51.9992 109.66 58.3731 110.708C64.1458 111.657 68.5375 111.518 69.3175 111.483H69.3075Z" fill="#FFFAF5"/>
<path d="M124.661 93.9368L122.658 92.3123C122.405 93.0674 124.169 95.8345 116.374 98.5967C108.579 101.364 101.286 103.878 96.2588 104.881C91.2312 105.885 86.929 104.35 86.929 104.35C86.929 104.35 85.6969 100.604 84.9418 100.102C84.1866 99.6002 84.44 104.881 82.6764 107.395C80.9128 109.909 78.2052 110.599 78.0512 112.517C77.9171 114.181 81.3152 123.884 82.2094 126.407C82.2094 124.072 82.1746 121.772 81.9759 120.684C81.6083 118.677 81.1016 116.67 81.2804 115.537C81.4592 114.405 87.5549 115.16 91.9069 112.586C96.2588 110.013 101.416 108.89 110.949 104.484C118.028 101.21 122.316 96.6741 124.661 93.9368Z" fill="#FFFAF5"/>
<path d="M121.451 82.3117C121.451 82.3117 119.578 83.1065 113.86 83.7871C108.142 84.4677 105.345 82.8134 102.17 84.2839C98.9908 85.7544 96.4819 88.6657 96.4819 88.6657C96.4819 88.6657 90.8533 86.4996 85.9648 83.3599C81.0763 80.2202 80.6441 75.7937 74.6826 75.1826C68.721 74.5716 67.8367 75.5453 67.8367 75.5453C67.8367 75.5453 58.2933 70.9798 52.5205 68.9528C46.7428 66.9259 39.2263 70.6817 37.7309 77.612C36.2356 84.5423 38.8139 107.405 39.1816 109.268C39.5542 111.131 39.6933 120.53 39.7777 122.383C39.8622 124.236 40.667 130.526 40.5825 133.372C40.4981 136.219 39.4697 141.882 39.1269 143.721C38.7841 145.559 43.0367 146.259 44.2042 145.3C45.3716 144.342 44.7357 141.897 44.388 139.324C44.0402 136.75 43.8365 129.338 44.7854 126.377C45.7293 123.417 46.082 121.29 46.2162 116.884C46.3503 112.472 47.4234 105.388 47.4234 105.388C47.4234 105.388 51.9939 109.655 58.3678 110.704C64.7417 111.752 69.4513 111.469 69.4513 111.469C69.4513 111.469 74.3646 123.153 76.0587 128.186C77.7577 133.223 78.9351 136.532 78.8209 140.372C78.7016 144.212 79.0395 147.213 80.0082 148.097C80.977 148.982 85.1004 149.25 86.1287 148.142C87.1571 147.034 85.4233 143.278 84.7923 140.556C84.1614 137.833 82.2736 134.5 82.2189 131.648C82.1643 128.797 82.3531 122.681 81.9855 120.679C81.6178 118.672 81.1111 116.665 81.2899 115.532C81.4688 114.4 87.5645 115.155 91.9164 112.581C96.2683 110.008 101.425 108.885 110.959 104.479C120.492 100.072 124.968 93.3753 126.439 91.8501C127.909 90.3299 127.8 84.6317 125.862 82.719C123.93 80.8064 121.461 82.3017 121.461 82.3017L121.451 82.3117Z" stroke="#B6312C" stroke-miterlimit="10"/>
<path d="M114.809 87.513C114.809 87.513 110.84 84.5174 108.326 87.5329C105.812 90.5485 107.322 93.0672 109.081 93.569C110.84 94.0707 115.619 93.0672 116.622 91.0552C117.626 89.0432 114.809 87.513 114.809 87.513Z" fill="#FFFAF5"/>
<path d="M101.033 94.5477C101.033 94.5477 100.461 91.413 94.6539 92.0141C88.8464 92.6152 91.0522 96.9125 93.2281 98.537C95.4041 100.162 101.54 99.7939 102.131 98.696C102.722 97.603 102.732 97.2652 102.742 96.9324" stroke="#B6312C" stroke-miterlimit="10"/>
<path d="M113.791 88.7005C113.791 88.7005 112.941 91.0106 111.163 90.8466C111.163 90.8466 112.236 92.1035 113.721 90.9261C115.207 89.7487 114.68 88.616 113.791 88.7005Z" fill="#FFFAF5" stroke="#B6312C" stroke-miterlimit="10"/>
<path d="M82.0203 90.1809C82.0203 90.1809 87.6837 97.9259 86.9286 104.354C86.1735 110.783 83.4709 111.931 83.4709 111.931L82.9145 113.456" stroke="#B6312C" stroke-miterlimit="10"/>
<path d="M43.8271 89.2119C43.8122 91.209 43.8271 93.5191 43.9165 95.4467C44.1202 99.8682 43.8171 103.227 47.4189 105.393" stroke="#B6312C" stroke-miterlimit="10"/>
<path d="M43.9064 84.5771C43.9064 84.5771 43.8815 85.4664 43.8567 86.8078" stroke="#B6312C" stroke-miterlimit="10"/>
<path d="M66.4308 92.4016C66.4308 92.4016 63.5295 98.4277 65.0894 102.894C66.6494 107.36 69.4413 111.479 69.4413 111.479" stroke="#B6312C" stroke-miterlimit="10"/>
<path d="M69.9434 112.671C70.0378 112.894 70.1421 113.148 70.2563 113.426L70.3557 113.436C70.3557 113.436 70.1967 113.148 69.9434 112.671Z" fill="#FFFAF5"/>
<path d="M151.557 20.5251C151.557 20.5251 151.229 31.8819 145.595 42.6176C140.965 51.4457 135.242 68.292 135.48 79.152C135.719 90.0119 140.309 98.7207 139.673 100.842C139.037 102.963 130.274 127.972 129.429 132.374C128.585 136.775 129.106 138.221 128.083 139.046C127.06 139.87 125.475 140.253 125.321 140.675C125.167 141.097 124.531 143.224 123.483 144.759C122.435 146.299 118.872 146.045 117.437 146.289C117.437 146.289 113.88 145.896 112.181 145.415C110.482 144.933 114.044 140.471 115.499 139.662C116.955 138.852 118.55 137.898 119.583 136.929C120.611 135.961 124.566 128.086 126.225 120.57C127.884 113.053 124.635 97.8166 124.114 96.2318C123.592 94.647 121.053 88.8544 119.493 83.951C117.929 79.0476 114.948 69.1018 113.721 67.209C112.494 65.3162 108.137 58.3263 110.109 49.9652" fill="#FFFAF5"/>
<path d="M125.321 140.67C125.475 140.248 127.06 139.866 128.083 139.041C129.106 138.216 128.58 136.77 129.429 132.369C130.279 127.967 139.037 102.959 139.673 100.837C140.21 99.0488 137.035 92.5805 135.878 84.0952C135.724 83.5835 135.639 83.2954 135.639 83.2954C135.639 83.2954 133.97 86.2762 133.468 90.3002C132.967 94.3243 133.97 98.5967 133.722 100.36C133.468 102.119 130.199 97.3448 129.951 98.0949C129.698 98.8501 129.698 105.89 129.196 109.159C128.694 112.427 125.674 100.862 125.674 100.862L125.361 102.174C126.324 107.708 127.283 115.726 126.22 120.56C124.561 128.077 120.606 135.956 119.578 136.92C119.121 137.347 118.555 137.769 117.938 138.181C118.53 138.281 119.141 138.519 119.638 139.081C121.65 141.346 123.478 144.749 123.478 144.749C123.478 144.749 123.672 144.396 123.955 143.964C124.72 142.568 125.187 141.018 125.316 140.665L125.321 140.67Z" fill="#FFFAF5"/>
<path d="M151.557 20.5251C151.557 20.5251 151.229 31.8819 145.595 42.6176C140.965 51.4457 135.242 68.292 135.48 79.152C135.719 90.0119 140.309 98.7207 139.673 100.842C139.037 102.963 130.274 127.972 129.429 132.374C128.585 136.775 129.106 138.221 128.083 139.046C127.06 139.87 125.475 140.253 125.321 140.675C125.167 141.097 124.531 143.224 123.483 144.759C122.435 146.299 118.872 146.045 117.437 146.289C117.437 146.289 113.88 145.896 112.181 145.415C110.482 144.933 114.044 140.471 115.499 139.662C116.955 138.852 118.55 137.898 119.583 136.929C120.611 135.961 124.566 128.086 126.225 120.57C127.884 113.053 124.635 97.8166 124.114 96.2318C123.592 94.647 121.053 88.8544 119.493 83.951C117.929 79.0476 114.948 69.1018 113.721 67.209C112.494 65.3162 108.137 58.3263 110.109 49.9652" stroke="#B6312C" stroke-miterlimit="10"/>
<path d="M113.542 36.2937C113.398 37.4115 113.194 38.4945 112.901 39.4583" stroke="#B6312C" stroke-miterlimit="10"/>
<path d="M113.646 26.2285C113.646 26.2285 114.034 30.332 113.721 34.52" stroke="#B6312C" stroke-miterlimit="10"/>
<path d="M149.296 28.2755C149.296 28.2755 146.738 15.483 144.82 17.7236C142.903 19.9641 143.861 27.9575 142.903 35.3101C141.944 42.6677 137.145 59.2954 137.145 59.2954C137.145 59.2954 149.296 37.2277 149.296 28.2755Z" fill="#FFFAF5"/>
</svg>
