<svg width="220" height="150" viewBox="0 0 220 150" fill="none" xmlns="http://www.w3.org/2000/svg">
<path d="M106.964 127.009C107.978 125.387 109.948 124.831 111.71 124.469C112.52 124.302 113.556 123.945 114.312 124.437C114.966 124.862 115.439 125.546 116.264 125.662C116.571 125.705 116.883 125.588 116.974 125.259C117.048 124.989 116.882 124.592 116.571 124.549C115.784 124.439 115.302 123.596 114.593 123.275C113.554 122.805 112.361 123.156 111.301 123.378C109.254 123.806 107.132 124.565 105.97 126.426C105.574 127.058 106.573 127.637 106.967 127.009H106.964Z" fill="#B6312C"/>
<path d="M19.783 104.385L1.00488 132.108L18.1612 130.136L38.5258 128.117L52.1662 127.301L68.4605 126.731H82.7728L86.9795 126.818L95.3427 127.621L101.973 128.699L101.664 130.65L102.442 131.758L105.078 132.735L109.209 133.061L113.458 132.587L117.278 131.225L120.094 129.669L121.633 127.853L122.189 126.114L122.137 124.18L136.403 125.82L183.97 130.755L219.347 133.492L212.888 122.224L209.333 116.383L207.632 112.811L211.531 112.948L208.732 109.427L206.636 105.785L205.262 102.658L207.852 102.297L199.017 88.0203L202.044 87.2191L195.08 78.3435L196.955 77.5421L193.3 72.6696L191.725 73.0931L178.104 55.8268L178.817 54.8646L162.263 37.6365L150.611 46.2569L141.355 52.1637L132.239 59.0937L126.326 64.2011L119.947 70.8292L115.849 76.7446L112.206 86.0888C113.157 74.9336 108.602 45.7269 106.205 32.518L102.162 16.5598L104.557 44.8138L106.57 69.0425L81.3476 21.8334L71.8192 35.4381L76.9146 45.4761L63.0296 34.7759L48.1256 51.1066L32.5802 66.4964L34.5244 67.5584L28.3476 73.0621L38.757 78.0574L17.2729 103.768L19.783 104.385Z" fill="#FFFAF5"/>
<path d="M101.563 129.485C102.886 129.371 104.158 129.552 105.219 128.59C105.799 128.066 106.251 127.377 107.139 127.645C107.943 127.887 108.45 128.648 108.904 129.301C109.11 129.598 109.535 129.702 109.81 129.418C111.026 128.162 112.332 126.784 114.028 126.199C115.876 125.561 117.908 125.936 119.807 125.555C120.577 125.401 121.308 125.124 122.086 124.986C122.564 124.901 123.056 125.028 123.587 125.083C125.063 125.237 126.542 125.383 128.019 125.527C135.002 126.208 141.98 126.92 148.958 127.654C157.58 128.56 166.205 129.44 174.833 130.28C183.445 131.12 192.061 131.92 200.678 132.684C206.532 133.202 212.383 133.644 218.242 134.079C218.635 134.109 219.028 134.137 219.421 134.17C219.87 134.207 220.122 133.656 219.919 133.302C219.88 133.235 219.841 133.168 219.804 133.101C219.471 133.296 219.14 133.489 218.807 133.684C218.846 133.751 218.884 133.818 218.921 133.884C219.291 134.528 220.289 133.948 219.919 133.302C215.919 126.341 211.921 119.381 207.921 112.421C207.551 111.777 206.554 112.357 206.924 113.003C210.924 119.964 214.922 126.924 218.921 133.884C219.254 133.69 219.586 133.497 219.919 133.302C219.88 133.235 219.841 133.168 219.804 133.101C219.434 132.458 218.437 133.037 218.807 133.684C218.846 133.751 218.884 133.818 218.921 133.884C219.088 133.595 219.254 133.305 219.419 133.016C214.17 132.578 208.914 132.252 203.666 131.793C194.944 131.029 186.227 130.228 177.513 129.387C168.806 128.547 160.102 127.667 151.403 126.756C144.139 125.997 136.879 125.228 129.609 124.527C128.026 124.374 126.443 124.22 124.861 124.06C124.18 123.992 123.501 123.92 122.821 123.847C122.279 123.789 121.84 123.852 121.307 123.963C120.424 124.148 119.598 124.472 118.691 124.561C117.692 124.659 116.684 124.626 115.686 124.717C113.843 124.883 112.335 125.576 110.92 126.756C110.238 127.325 109.614 127.963 108.997 128.601C109.299 128.639 109.602 128.678 109.904 128.718C108.991 127.406 107.518 125.778 105.741 126.649C105.008 127.007 104.605 127.828 103.849 128.125C103.152 128.398 102.297 128.266 101.566 128.33C100.831 128.394 100.824 129.549 101.566 129.485H101.563Z" fill="#B6312C"/>
<path d="M0.578725 132.666C6.12264 131.957 11.677 131.325 17.2358 130.744C24.26 130.01 31.2932 129.362 38.3339 128.813C45.8456 128.228 53.3664 127.755 60.896 127.459C67.9589 127.183 75.0352 127.05 82.1011 127.251C87.7595 127.413 93.4713 127.725 99.045 128.77C99.5994 128.874 100.151 128.987 100.701 129.109C101.425 129.269 101.734 128.158 101.007 127.996C95.6577 126.808 90.1286 126.414 84.6665 126.185C77.6898 125.894 70.6982 125.973 63.7214 126.202C56.174 126.448 48.6325 126.89 41.1028 127.447C33.9463 127.976 26.7972 128.614 19.6584 129.338C13.8648 129.926 8.07565 130.57 2.29689 131.292C1.72467 131.364 1.15095 131.436 0.578725 131.509C-0.148078 131.603 -0.156996 132.758 0.578725 132.664V132.666Z" fill="#B6312C"/>
<path d="M1.07816 132.38C3.50679 128.883 5.9473 125.393 8.38633 121.903C11.2177 117.852 14.0521 113.801 16.8806 109.748C18.1053 107.994 19.3285 106.241 20.5473 104.484C20.7256 104.228 20.5948 103.843 20.3407 103.694C20.0538 103.527 19.7298 103.645 19.5515 103.901C17.1228 107.398 14.6823 110.888 12.2433 114.378C9.41188 118.43 6.5775 122.48 3.74906 126.533C2.52434 128.287 1.30111 130.041 0.0823396 131.798C-0.0960171 132.053 0.0347779 132.438 0.288936 132.587C0.575793 132.755 0.899808 132.636 1.07816 132.38Z" fill="#B6312C"/>
<path d="M101.428 15.5654C102.639 29.6571 103.87 43.7473 105.106 57.8375C106.34 71.9039 107.579 85.9702 108.806 100.037C109.495 107.951 110.183 115.866 110.863 123.78C110.925 124.515 112.081 124.522 112.018 123.78C110.806 109.689 109.576 95.5985 108.339 81.5084C107.105 67.442 105.866 53.3756 104.64 39.3092C103.95 31.3946 103.263 23.48 102.582 15.5654C102.52 14.8312 101.364 14.8238 101.428 15.5654Z" fill="#B6312C"/>
<path d="M101.448 15.7187C103.862 24.8401 105.953 34.0493 107.593 43.3417C109.234 52.6385 110.418 62.0171 111.016 71.4403C111.35 76.7137 111.499 81.999 111.447 87.2843C111.441 87.919 112.453 88.0899 112.581 87.4374C114.289 78.7083 119.577 71.2114 125.99 65.2379C129.584 61.8923 133.37 58.7472 137.301 55.8058C139.275 54.3285 141.287 52.9016 143.341 51.5372C145.376 50.1846 147.493 48.9629 149.524 47.6074C154 44.6214 158.019 41.0171 162.626 38.2184L161.926 38.1277C167.564 43.7727 172.766 49.8354 178.549 55.3391C178.588 55.0374 178.626 54.7342 178.666 54.4325C172.687 58.5808 166.77 62.8212 160.92 67.1493C155.312 71.2991 149.764 75.5321 144.282 79.8483C139.339 83.741 134.376 87.6321 129.837 91.9989C125.611 96.0654 121.717 100.514 118.522 105.441C115.374 110.294 112.936 115.639 111.628 121.285C111.46 122.007 111.313 122.734 111.181 123.462C111.05 124.189 112.162 124.5 112.294 123.769C113.322 118.081 115.479 112.681 118.45 107.733C121.445 102.745 125.194 98.2473 129.302 94.1406C133.628 89.814 138.386 85.9838 143.173 82.1863C148.581 77.8953 154.055 73.692 159.59 69.5675C165.321 65.2959 171.116 61.1105 176.973 57.0142C177.73 56.4851 178.489 55.956 179.249 55.4298C179.545 55.2247 179.653 54.7966 179.366 54.5232C173.583 49.0194 168.381 42.9567 162.744 37.3117C162.565 37.1334 162.262 37.0888 162.044 37.2211C157.885 39.7463 154.212 42.9225 150.245 45.7153C148.215 47.1451 146.069 48.3847 143.986 49.7328C141.901 51.0824 139.857 52.4988 137.854 53.9673C133.82 56.9235 129.929 60.0834 126.229 63.4484C122.899 66.479 119.831 69.7652 117.303 73.5048C114.519 77.6248 112.425 82.2353 111.468 87.1283L112.602 87.2813C112.695 77.8255 112.139 68.3711 111.047 58.9791C109.956 49.5946 108.348 40.2739 106.34 31.044C105.2 25.8048 103.932 20.5923 102.56 15.4095C102.37 14.6917 101.257 14.9963 101.447 15.7157L101.448 15.7187Z" fill="#B6312C"/>
<path d="M193.097 72.1179C187.434 74.1081 181.716 75.9348 176.019 77.8194C170.086 79.7828 164.164 81.7908 158.341 84.0649C152.885 86.1947 147.522 88.5698 142.442 91.4979C137.259 94.4839 132.352 97.9767 127.903 101.978C123.518 105.922 119.575 110.392 116.392 115.362C116.001 115.973 115.622 116.591 115.253 117.217C114.876 117.859 115.873 118.44 116.25 117.8C119.222 112.748 122.983 108.204 127.228 104.173C131.5 100.115 136.247 96.5751 141.283 93.5237C146.257 90.5095 151.516 88.0363 156.908 85.8677C162.622 83.5699 168.448 81.5589 174.289 79.6104C180.017 77.699 185.772 75.8664 191.481 73.9C192.122 73.6786 192.762 73.4571 193.403 73.2312C194.099 72.9859 193.8 71.8712 193.097 72.1179Z" fill="#B6312C"/>
<path d="M177.957 56.2666C181.45 60.7374 184.937 65.2127 188.427 69.685C189.356 70.8755 190.286 72.066 191.215 73.2566C191.407 73.5018 191.83 73.4587 192.031 73.2566C192.273 73.0143 192.224 72.6873 192.031 72.4406C188.538 67.9698 185.051 63.4945 181.562 59.0222C180.633 57.8317 179.702 56.6412 178.773 55.4506C178.582 55.2054 178.158 55.2485 177.957 55.4506C177.715 55.6929 177.764 56.0199 177.957 56.2666Z" fill="#B6312C"/>
<path d="M192.752 72.9667C194.018 74.6061 195.283 76.247 196.55 77.8864C196.664 77.604 196.78 77.3216 196.894 77.0392C190.383 78.909 183.916 80.9333 177.503 83.1152C171.089 85.2971 164.728 87.6321 158.427 90.1217C152.408 92.4997 146.431 95.0175 140.675 97.9857C135.192 100.811 129.92 104.057 125.088 107.899C120.509 111.541 116.352 115.726 112.927 120.481C112.512 121.058 112.11 121.643 111.716 122.235C111.304 122.856 112.303 123.434 112.713 122.817C115.909 117.997 119.887 113.742 124.305 110.023C128.935 106.126 134.049 102.838 139.373 99.9744C145.034 96.9289 150.936 94.3576 156.899 91.9647C163.111 89.4736 169.384 87.1371 175.709 84.9493C182.033 82.7615 188.409 80.7237 194.831 78.8406C195.621 78.6087 196.411 78.3798 197.202 78.1524C197.522 78.0603 197.782 77.6099 197.547 77.3052C196.281 75.6658 195.016 74.025 193.749 72.3856C193.558 72.1373 193.256 72.0095 192.96 72.179C192.716 72.3187 192.563 72.723 192.754 72.9682L192.752 72.9667Z" fill="#B6312C"/>
<path d="M194.423 78.5031C196.813 81.6006 199.289 84.6312 201.679 87.7286L202.024 86.8814C194.999 88.173 187.981 89.5077 180.991 90.9762C173.977 92.4506 166.99 94.0603 160.061 95.8959C153.219 97.7092 146.41 99.7157 139.743 102.097C133.924 104.176 128.064 106.599 123.18 110.454C120.993 112.18 118.945 114.084 117.008 116.084C115.167 117.987 113.41 119.99 111.861 122.14C111.543 122.581 111.236 123.03 110.943 123.488C110.54 124.115 111.539 124.695 111.94 124.07C113.275 121.989 114.876 120.083 116.543 118.263C118.432 116.202 120.443 114.246 122.576 112.435C124.551 110.759 126.632 109.287 128.909 108.049C131.904 106.422 135.04 105.072 138.228 103.876C144.776 101.419 151.509 99.414 158.252 97.5754C165.083 95.7145 171.973 94.0841 178.895 92.5978C185.821 91.1085 192.777 89.7634 199.742 88.4703C200.606 88.3098 201.469 88.1507 202.331 87.9917C202.669 87.9293 202.895 87.4269 202.676 87.1445C200.286 84.047 197.81 81.0165 195.42 77.919C195.228 77.6708 194.926 77.543 194.631 77.7124C194.387 77.8521 194.234 78.2564 194.424 78.5016L194.423 78.5031Z" fill="#B6312C"/>
<path d="M198.361 88.3424C201.447 93.1224 204.434 97.9648 207.52 102.745C207.686 102.455 207.853 102.165 208.018 101.877C201.074 102.161 194.13 102.443 187.187 102.727C180.282 103.009 173.372 103.237 166.471 103.59C160.068 103.917 153.679 104.54 147.455 106.142C141.864 107.581 136.443 109.698 131.345 112.407C126.247 115.115 121.467 118.431 117.151 122.267C116.619 122.74 116.093 123.223 115.574 123.711C115.032 124.22 115.849 125.036 116.39 124.527C120.543 120.615 125.159 117.214 130.121 114.396C135.101 111.566 140.412 109.331 145.92 107.755C151.956 106.029 158.154 105.24 164.407 104.86C171.227 104.444 178.066 104.253 184.892 103.975C191.744 103.696 198.596 103.417 205.448 103.137C206.304 103.101 207.162 103.067 208.018 103.032C208.434 103.015 208.764 102.547 208.516 102.164C205.43 97.3836 202.443 92.5412 199.357 87.7613C198.956 87.1385 197.956 87.7167 198.36 88.3439L198.361 88.3424Z" fill="#B6312C"/>
<path d="M204.778 103.293C206.486 107.04 208.715 110.523 211.383 113.659L211.792 112.673C205.34 111.877 198.886 111.083 192.41 110.512C185.963 109.944 179.499 109.579 173.029 109.418C166.559 109.258 160.083 109.301 153.616 109.549C147.389 109.788 141.093 110.167 135.049 111.796C129.881 113.189 124.809 115.549 120.753 119.084C120.252 119.521 119.769 119.978 119.305 120.454C118.786 120.986 119.601 121.804 120.121 121.27C123.849 117.449 128.805 114.915 133.862 113.342C139.697 111.529 145.838 111.041 151.911 110.774C158.277 110.493 164.654 110.413 171.025 110.53C177.436 110.647 183.842 110.966 190.233 111.483C196.649 112.003 203.042 112.752 209.43 113.537C210.218 113.633 211.005 113.732 211.793 113.828C212.34 113.895 212.486 113.177 212.202 112.843C209.599 109.782 207.443 106.365 205.777 102.711C205.469 102.036 204.473 102.621 204.779 103.293H204.778Z" fill="#B6312C"/>
<path d="M216.197 127.165C209.424 126.151 202.648 125.16 195.869 124.183C189.114 123.21 182.358 122.239 175.599 121.298C168.72 120.341 161.824 119.458 154.887 119.05C151.736 118.864 148.569 118.736 145.413 118.885C142.457 119.023 139.511 119.36 136.589 119.818C130.721 120.737 124.916 122.144 119.272 123.993C118.62 124.207 117.97 124.427 117.324 124.654C116.627 124.898 116.927 126.014 117.63 125.768C123.134 123.84 128.808 122.364 134.548 121.328C137.485 120.798 140.445 120.39 143.42 120.163C146.403 119.935 149.38 119.953 152.368 120.078C159.27 120.364 166.14 121.166 172.983 122.095C179.722 123.011 186.452 123.989 193.183 124.956C199.913 125.924 206.643 126.903 213.369 127.904C214.21 128.028 215.05 128.155 215.891 128.28C216.618 128.388 216.931 127.276 216.197 127.166V127.165Z" fill="#B6312C"/>
<path d="M80.8837 22.0934C84.5133 28.4117 88.076 34.7672 91.542 41.1761C94.8149 47.2298 97.9986 53.3326 101.084 59.4844C102.828 62.9624 104.541 66.4552 106.225 69.9629C106.361 70.2438 106.762 70.3181 107.014 70.1695C107.301 70.0015 107.356 69.6612 107.221 69.3803C104.217 63.1274 101.123 56.9176 97.9257 50.7598C94.7094 44.5634 91.3934 38.419 87.9972 32.3192C85.9833 28.7016 83.9411 25.0988 81.8796 21.5093C81.5095 20.8658 80.5122 21.4454 80.8823 22.092L80.8837 22.0934Z" fill="#B6312C"/>
<path d="M80.8838 21.5107C78.9545 24.25 76.951 26.9358 74.9995 29.6602C74.0453 30.9934 73.097 32.334 72.1874 33.6984C71.9971 33.9838 71.8069 34.2722 71.6211 34.5605C71.4338 34.8503 71.1187 35.1907 71.2094 35.5608C71.2748 35.8283 71.4665 36.1033 71.5869 36.347C72.9692 39.1487 74.3054 41.9727 75.921 44.6495C78.0598 48.1959 80.4944 51.5519 82.761 55.015C87.1188 61.6722 91.0352 68.6162 94.4849 75.7862C97.9391 82.965 100.921 90.3698 103.406 97.9396C105.889 105.499 107.881 113.219 109.354 121.037C109.537 122.01 109.712 122.985 109.88 123.962C110.006 124.693 111.118 124.382 110.993 123.656C109.874 117.146 108.401 110.698 106.582 104.347C104.763 97.9975 102.599 91.7461 100.106 85.63C97.6166 79.5227 94.806 73.5463 91.6773 67.7408C88.5189 61.8788 85.0127 56.2308 81.2717 50.7256C79.3217 47.8555 77.3612 44.984 75.6876 41.94C74.5521 39.8755 73.5533 37.7323 72.5114 35.6202C72.4282 35.4523 72.3464 35.2858 72.2632 35.1179V35.7005C75.218 30.9993 78.684 26.6311 81.8796 22.0963C82.3076 21.4884 81.3074 20.9103 80.8823 21.5137L80.8838 21.5107Z" fill="#B6312C"/>
<path d="M62.7034 34.3493C58.5685 38.5496 54.7056 43.0145 50.7579 47.3887C49.6908 48.5718 48.6192 49.7504 47.5327 50.9172C47.2934 51.1728 47.3053 51.6499 47.6501 51.8238C53.0781 54.5572 58.0527 58.1451 62.7732 61.9486C67.7672 65.972 72.5085 70.2986 77.1681 74.6996C81.8351 79.108 86.5616 83.4896 91.0071 88.1254C93.3094 90.5258 95.5597 93.0198 97.5052 95.7234C99.1848 98.0583 100.635 100.557 101.952 103.112C104.693 108.43 106.921 114.066 108.479 119.845C108.648 120.472 108.807 121.101 108.956 121.732C109.127 122.455 110.24 122.148 110.069 121.426C108.703 115.653 106.576 110.028 104.017 104.683C102.719 101.972 101.285 99.3173 99.6366 96.7995C97.9021 94.1494 95.8673 91.7044 93.7389 89.362C89.3127 84.4914 84.4391 80.0235 79.674 75.4888C75.0234 71.0641 70.3148 66.6943 65.3728 62.5936C60.5735 58.6118 55.5483 54.8113 50.0742 51.7986C49.4649 51.4627 48.8495 51.1401 48.2283 50.8265C48.2669 51.1283 48.3055 51.4315 48.3457 51.7332C52.3899 47.3902 56.2677 42.8971 60.3015 38.5437C61.3583 37.4037 62.4254 36.2726 63.5149 35.1653C64.0366 34.6362 63.2206 33.8187 62.6989 34.3493H62.7034Z" fill="#B6312C"/>
<path d="M62.7033 35.1653C66.3789 38.1023 70.0665 41.0229 73.7466 43.9539C74.7899 44.7847 75.8333 45.6156 76.8752 46.4479C77.119 46.6426 77.4534 46.6857 77.6912 46.4479C77.8933 46.2458 77.9365 45.8266 77.6912 45.6319C74.0156 42.695 70.3281 39.7744 66.648 36.8434C65.6046 36.0125 64.5612 35.1817 63.5193 34.3494C63.2755 34.1547 62.9411 34.1116 62.7033 34.3494C62.5012 34.5515 62.4581 34.9706 62.7033 35.1653Z" fill="#B6312C"/>
<path d="M47.5324 50.9173C43.6666 54.8843 39.8646 58.9166 35.8382 62.7231C34.5867 63.9062 33.3159 65.0699 32.0288 66.2159C31.6676 66.5369 31.9173 67.0274 32.283 67.1805C38.6012 69.8291 44.9195 72.4806 51.1531 75.324C57.3332 78.142 63.4315 81.1473 69.3336 84.5123C74.8686 87.6677 80.2297 91.1368 85.2385 95.0799C90.0289 98.8507 94.522 103.009 98.5811 107.56C102.609 112.076 106.204 116.988 109.155 122.276C109.519 122.929 109.871 123.586 110.216 124.249C110.558 124.909 111.555 124.326 111.213 123.666C108.395 118.235 104.893 113.177 100.938 108.513C96.9536 103.812 92.5006 99.5121 87.734 95.6091C82.8441 91.6049 77.6212 88.0452 72.1828 84.8289C66.2525 81.3227 60.1021 78.2044 53.8567 75.3017C47.6187 72.4019 41.2855 69.7161 34.9434 67.0541C34.1602 66.7257 33.3754 66.3972 32.5921 66.0672C32.6768 66.3883 32.7615 66.7108 32.8463 67.0319C37.0421 63.2968 41.0001 59.3254 44.9032 55.29C46.0506 54.104 47.198 52.9164 48.3499 51.7333C48.8686 51.2012 48.0527 50.3837 47.5339 50.9173H47.5324Z" fill="#B6312C"/>
<path d="M34.2243 67.136C32.0959 69.0206 29.9615 70.8978 27.8332 72.7839C27.5731 73.0143 27.6221 73.539 27.9506 73.6906C34.2198 76.5785 40.4891 79.4678 46.7568 82.3557C53.026 85.2436 59.2953 88.133 65.563 91.0209C71.3879 93.7052 77.2499 96.3404 82.8621 99.4542C88.0776 102.348 93.0894 105.673 97.4532 109.76C101.459 113.512 104.885 117.898 107.181 122.902C107.466 123.523 107.73 124.152 107.978 124.788C108.244 125.473 109.36 125.175 109.091 124.482C107.07 119.283 103.892 114.641 100.011 110.652C95.8792 106.404 91.0294 102.898 85.9418 99.8882C80.4305 96.6272 74.6146 93.9281 68.8047 91.2498C62.4775 88.3337 56.1488 85.4175 49.8201 82.5029C43.5018 79.5912 37.185 76.681 30.8667 73.7694C30.0894 73.4112 29.312 73.0529 28.5347 72.6947C28.5733 72.9965 28.612 73.2997 28.6521 73.6014C30.7805 71.7168 32.9148 69.8396 35.0432 67.9534C35.6006 67.46 34.7816 66.6455 34.2272 67.1374L34.2243 67.136Z" fill="#B6312C"/>
<path d="M38.3353 77.6248C35.6986 80.9408 33.0559 84.2508 30.3538 87.5132C27.8346 90.5557 25.2588 93.5521 22.6637 96.5306C20.6616 98.827 18.6477 101.114 16.6338 103.4C16.2785 103.805 16.5475 104.322 17.0425 104.386C23.5926 105.224 30.1428 106.062 36.6944 106.901C43.2446 107.739 49.7947 108.577 56.3464 109.415C62.8103 110.242 69.2846 111.015 75.7397 111.912C81.7042 112.742 87.752 113.818 93.3048 116.238C98.058 118.309 102.545 121.359 105.628 125.589C106.002 126.104 106.355 126.634 106.686 127.177C107.074 127.81 108.073 127.23 107.683 126.594C104.916 122.076 100.698 118.639 96.0144 116.246C90.6756 113.518 84.7824 112.147 78.8936 111.22C72.4163 110.199 65.8855 109.482 59.3814 108.65C52.7421 107.8 46.1013 106.951 39.4619 106.101C32.8226 105.251 26.1818 104.402 19.5425 103.552C18.7086 103.445 17.8748 103.338 17.041 103.232L17.4497 104.218C20.675 100.557 23.9018 96.8977 27.0751 93.1924C29.5289 90.3268 31.9397 87.424 34.3119 84.4886C35.9349 82.4806 37.5461 80.4622 39.1528 78.4408C39.6106 77.8656 38.799 77.0437 38.3368 77.6248H38.3353Z" fill="#B6312C"/>
<path d="M102.297 128.648C97.4813 125.567 91.6431 124.293 86.0486 123.551C79.3246 122.66 72.495 122.484 65.7219 122.676C58.7883 122.872 51.874 123.491 44.9864 124.29C38.0721 125.093 31.1816 126.072 24.2867 127.022C17.5403 127.951 10.7925 128.881 4.04614 129.81C3.193 129.928 2.33838 130.045 1.48524 130.163C0.752487 130.264 1.06461 131.375 1.79141 131.276C8.45898 130.357 15.1265 129.439 21.7941 128.52C28.6341 127.578 35.4711 126.601 42.3245 125.762C49.1451 124.925 55.9896 124.238 62.8578 123.933C69.7319 123.627 76.6314 123.708 83.4803 124.406C89.0881 124.978 94.9248 125.995 99.9693 128.63C100.567 128.942 101.148 129.281 101.716 129.644C102.343 130.045 102.923 129.046 102.298 128.647L102.297 128.648Z" fill="#B6312C"/>
<path d="M6.26815 125.015C11.6575 121.753 18.059 120.904 24.1989 120.143C31.0895 119.289 38.0127 118.706 44.9448 118.326C51.8323 117.948 58.7481 117.688 65.6461 117.762C72.2809 117.835 78.9678 118.351 85.3768 120.158C90.9534 121.731 96.3472 124.274 100.748 128.091C101.291 128.56 101.815 129.051 102.327 129.555C102.856 130.078 103.672 129.262 103.143 128.739C98.9274 124.573 93.651 121.662 88.061 119.779C81.8186 117.676 75.2104 116.897 68.6529 116.674C61.6494 116.437 54.6132 116.701 47.6172 117.034C40.5543 117.37 33.5002 117.905 26.476 118.715C20.1621 119.443 13.5629 120.1 7.76189 122.892C7.05144 123.233 6.3603 123.611 5.68552 124.018C5.05087 124.402 5.63053 125.4 6.26815 125.015Z" fill="#B6312C"/>
<path d="M12.0246 116.429C18.6773 116.138 25.33 115.845 31.9812 115.554C38.6651 115.261 45.3491 114.968 52.033 114.674C58.6158 114.385 65.2314 114.023 71.8083 114.635C77.6153 115.175 83.3271 116.547 88.7908 118.571C94.2322 120.586 99.4164 123.253 104.348 126.3C104.96 126.677 105.568 127.062 106.173 127.452C106.8 127.854 107.379 126.856 106.756 126.454C101.847 123.294 96.6994 120.505 91.2863 118.306C85.9014 116.12 80.2698 114.564 74.5059 113.789C67.9543 112.908 61.3372 113.116 54.7514 113.401C48.0393 113.691 41.3286 113.99 34.6164 114.284C27.9325 114.577 21.2486 114.87 14.5647 115.164C13.7175 115.201 12.8703 115.239 12.0231 115.276C11.2829 115.308 11.2785 116.463 12.0231 116.431L12.0246 116.429Z" fill="#B6312C"/>
<path d="M101.359 128.905C100.968 129.743 101.078 130.696 101.591 131.463C102.119 132.252 102.952 132.72 103.846 132.99C104.788 133.273 105.799 133.386 106.775 133.473C107.764 133.56 108.758 133.577 109.749 133.526C111.763 133.422 113.771 133.052 115.683 132.408C117.493 131.799 119.342 130.995 120.787 129.717C122.35 128.333 123.368 126.106 122.665 124.032C122.429 123.331 121.313 123.632 121.552 124.338C122.063 125.849 121.417 127.449 120.344 128.544C119.18 129.733 117.591 130.476 116.053 131.053C112.726 132.3 109.068 132.716 105.553 132.171C104.681 132.035 103.71 131.876 102.997 131.314C102.49 130.916 102.056 130.128 102.356 129.486C102.489 129.204 102.435 128.864 102.15 128.697C101.9 128.551 101.493 128.62 101.36 128.904L101.359 128.905Z" fill="#B6312C"/>
</svg>
